<svg xmlns="http://www.w3.org/2000/svg" width="32" height="32" viewBox="0 0 32 32">
  <defs>
    <linearGradient id="a" x1="6" x2="235" y1="33" y2="344" gradientTransform="translate(1.34 1.894) scale(.07142)" gradientUnits="userSpaceOnUse">
      <stop offset="0" stop-color="#41d1ff"/>
      <stop offset="1" stop-color="#bd34fe"/>
    </linearGradient>
  </defs>
  <path fill="url(#a)" d="m29.884 6.146-13.142 23.5a.714.714 0 0 1-1.244 0L2.096 6.148a.714.714 0 0 1 .746-1.057l13.156 2.352a.714.714 0 0 0 .253 0l12.881-2.348a.714.714 0 0 1 .752 1.05z"/>
  <path fill="#41d1ff" d="M22.264 2.007 12.54 3.912a.357.357 0 0 0-.288.33l-.598 10.104a.357.357 0 0 0 .437.369l2.707-.625a.357.357 0 0 1 .43.42l-.804 3.939a.357.357 0 0 0 .454.413l1.672-.508a.357.357 0 0 1 .454.414l-1.279 6.187c-.08.387.435.598.65.267l.143-.222 7.925-15.815a.357.357 0 0 0-.387-.51l-2.787.537a.357.357 0 0 1-.41-.45l1.818-6.306a.357.357 0 0 0-.412-.45z"/>
</svg>

